<svg width="35" height="34" viewBox="0 0 35 34" fill="none" xmlns="http://www.w3.org/2000/svg">
<path d="M23.4965 14.1666L26.5415 15.0801C28.4868 15.6637 29.4595 15.9555 30.0197 16.7084C30.5798 17.4613 30.5798 18.4768 30.5798 20.5078V31.1666" stroke="#282824" stroke-width="2" stroke-linejoin="round"/>
<path d="M12.1632 12.75L16.4132 12.75M12.1632 18.4167L16.4132 18.4167" stroke="#282824" stroke-width="2" stroke-linecap="round" stroke-linejoin="round"/>
<path d="M17.8298 31.1666V26.9166C17.8298 25.5809 17.8298 24.9131 17.4149 24.4982C17 24.0833 16.3321 24.0833 14.9965 24.0833H13.5798C12.2442 24.0833 11.5764 24.0833 11.1614 24.4982C10.7465 24.9131 10.7465 25.5809 10.7465 26.9166V31.1666" stroke="#282824" stroke-width="2" stroke-linejoin="round"/>
<path d="M3.66316 31.1666L31.9965 31.1666" stroke="#282824" stroke-width="2" stroke-linecap="round"/>
<path d="M5.07983 31.1666V9.51601C5.07983 5.95911 5.07983 4.18066 6.20068 3.29826C7.32152 2.41587 8.97201 2.89495 12.273 3.8531L19.3563 5.90914C21.3483 6.48735 22.3443 6.77646 22.9204 7.56443C23.4965 8.3524 23.4965 9.42562 23.4965 11.5721V31.1666" stroke="#282824" stroke-width="2" stroke-linecap="round" stroke-linejoin="round"/>
</svg>
